# xmcd
# 
# Track frame offsets:
#     150
#     28639
#     65251
#     98908
#     129770
#     147394
#     179481
# 
# Disc length: 2780
# 
# Revision: 0
# Processed by: cddbd v1.5.2PL0 Copyright (c) Steve Scherf et al.
# Submitted via: fre:ac v1.0.27
# 
DISCID=5b0ada07
DTITLE=Barry White - The Man
DYEAR=1978
DGENRE=Soul
TTITLE0=Look At Her
TTITLE1=Your Sweetness Is My Weakness
TTITLE2=Sha La La Means I Love You
TTITLE3=September When I First Met You
TTITLE4=It's Only Love Doing Its Thing
TTITLE5=Just The Way You Are
TTITLE6=Early Years
EXTD=
EXTT0=
EXTT1=
EXTT2=
EXTT3=
EXTT4=
EXTT5=
EXTT6=
PLAYORDER=
